<svg width="28" height="30" viewBox="0 0 28 30" fill="none" xmlns="http://www.w3.org/2000/svg">
<g filter="url(#filter0_d_929_2351)">
<path d="M22.04 6.82006L16.28 2.79006C14.71 1.69006 12.3 1.75006 10.79 2.92006L5.77999 6.83006C4.77999 7.61006 3.98999 9.21006 3.98999 10.4701V17.3701C3.98999 19.9201 6.05999 22.0001 8.60999 22.0001H19.39C21.94 22.0001 24.01 19.9301 24.01 17.3801V10.6001C24.01 9.25006 23.14 7.59006 22.04 6.82006ZM14.75 18.0001C14.75 18.4101 14.41 18.7501 14 18.7501C13.59 18.7501 13.25 18.4101 13.25 18.0001V15.0001C13.25 14.5901 13.59 14.2501 14 14.2501C14.41 14.2501 14.75 14.5901 14.75 15.0001V18.0001Z" fill="#292D32"/>
</g>
<defs>
<filter id="filter0_d_929_2351" x="-2" y="0" width="32" height="32" filterUnits="userSpaceOnUse" color-interpolation-filters="sRGB">
<feFlood flood-opacity="0" result="BackgroundImageFix"/>
<feColorMatrix in="SourceAlpha" type="matrix" values="0 0 0 0 0 0 0 0 0 0 0 0 0 0 0 0 0 0 127 0" result="hardAlpha"/>
<feOffset dy="4"/>
<feGaussianBlur stdDeviation="2"/>
<feComposite in2="hardAlpha" operator="out"/>
<feColorMatrix type="matrix" values="0 0 0 0 0 0 0 0 0 0 0 0 0 0 0 0 0 0 0.25 0"/>
<feBlend mode="normal" in2="BackgroundImageFix" result="effect1_dropShadow_929_2351"/>
<feBlend mode="normal" in="SourceGraphic" in2="effect1_dropShadow_929_2351" result="shape"/>
</filter>
</defs>
</svg>
